<?xml version="1.0" ?>

<!-- Uploaded to: SVG Repo, www.svgrepo.com, Generator: SVG Repo Mixer Tools -->
<svg fill="#000000" width="800px" height="800px" viewBox="0 0 512 512" version="1.1" xml:space="preserve" xmlns="http://www.w3.org/2000/svg" xmlns:xlink="http://www.w3.org/1999/xlink">

<g id="teddy_bear-doll-heart-love-valentine">

<path d="M192,144c0-8.836,7.164-16,16-16s16,7.164,16,16s-7.164,16-16,16S192,152.836,192,144z M304,160c8.836,0,16-7.164,16-16   s-7.164-16-16-16s-16,7.164-16,16S295.164,160,304,160z M352,360v16h8c22.055,0,40,17.945,40,40v40c0,13.234-10.766,24-24,24h-48   c-13.234,0-24-10.766-24-24h-96c0,13.234-10.766,24-24,24h-48c-13.234,0-24-10.766-24-24v-40c0-22.055,17.945-40,40-40h8v-16   c-30.875,0-56-25.121-56-56c0-28.439,21.329-51.941,48.816-55.486C139.375,228.344,132,204.6,132,180   c0-12.863,1.72-22.61,4.598-33.189C117.356,137.984,104,118.602,104,96c0-30.96,25.04-56,56-56   c19.937,0,37.364,10.34,47.257,25.987c31.432-13.433,66.966-13.079,97.485,0C314.636,50.34,332.063,40,352,40   c30.96,0,56,25.04,56,56c0,22.603-13.357,41.986-32.601,50.812C378.325,157.545,380,167.318,380,180   c0,24.6-7.375,48.344-20.816,68.514C386.671,252.059,408,275.561,408,304C408,334.879,382.875,360,352,360z M352,264   c-22.055,0-40,17.945-40,40c0,21.6,17.563,40,40,40c22.055,0,40-17.945,40-40S374.055,264,352,264z M338.452,87.603   c10.424,9.369,14.095,14.12,20.125,22.936C364.112,108.014,368,102.452,368,96c0-8.8-7.2-16-16-16   C346.285,80,341.284,83.063,338.452,87.603z M153.424,110.539c6.034-8.827,9.814-13.677,20.121-22.942   C170.712,83.06,165.713,80,160,80c-8.8,0-16,7.2-16,16C144,102.453,147.889,108.015,153.424,110.539z M148,180   c0,25.696,9.16,50.352,25.73,69.774c11.803,2.993,22.142,9.687,29.628,18.843c2.141-2.222,4.521-4.148,7.069-5.821   C208.867,258.079,208,253.145,208,248c0-15.273,7.391-29.773,19.766-38.789c0.036-0.026,0.079-0.036,0.115-0.062   c16.388-11.958,39.852-11.957,56.24,0.001c0.036,0.025,0.078,0.035,0.114,0.061C296.609,218.227,304,232.727,304,248   c0,5.145-0.868,10.079-2.428,14.797c2.544,1.671,4.925,3.597,7.069,5.821c7.486-9.156,17.825-15.852,29.628-18.844   C354.839,230.352,364,205.696,364,180c0-9.754-1.273-19.227-3.781-28.156c-8.803-33.146-32.867-59.018-62.359-71.43   c-26.469-11.172-57.258-11.168-83.711-0.004C174.612,97.051,148,135.995,148,180z M271.248,219.875   c-9.267-5.086-21.23-5.086-30.496,0C243.256,236.107,268.757,235.976,271.248,219.875z M160,344c22.292,0,40-18.172,40-40   c0-22.055-17.945-40-40-40s-40,17.945-40,40S137.945,344,160,344z M192,416c0-13.234-10.766-24-24-24h-16   c-13.234,0-24,10.766-24,24v40c0,4.41,3.586,8,8,8h48c4.414,0,8-3.59,8-8V416z M269.28,354.48l30.51-30.886   c-2.322-6.244-3.79-10.92-3.79-19.594c0-7.282,1.439-14.223,3.98-20.61c-3.171-4.787-6.819-7.717-11.48-9.55   c-0.011-0.004-0.018-0.015-0.029-0.019c-0.013-0.005-0.028-0.003-0.041-0.008c-9.195-3.73-19.695-1.535-26.75,5.578   c-1.5,1.516-3.547,2.367-5.68,2.367s-4.18-0.852-5.68-2.367c-7.055-7.113-17.547-9.305-26.75-5.578   c-0.013,0.005-0.028,0.003-0.041,0.008c-0.011,0.004-0.018,0.015-0.029,0.019c-4.783,1.882-8.377,4.863-11.479,9.553   C214.561,289.78,216,296.719,216,304c0,8.515-1.438,13.251-3.78,19.604l30.5,30.876C250.08,361.84,261.92,361.84,269.28,354.48z    M360,392h-16c-13.234,0-24,10.766-24,24v40c0,4.41,3.586,8,8,8h48c4.414,0,8-3.59,8-8v-40C384,402.766,373.234,392,360,392z"/>

</g>

<g id="Layer_1"/>

</svg>